<?xml version="1.0" encoding="UTF-8" standalone="no"?>
<!-- Created with Inkscape (http://www.inkscape.org/) -->

<svg
   width="104.44013mm"
   height="23.63887mm"
   viewBox="0 0 104.44013 23.63887"
   version="1.1"
   id="svg5"
   xmlns="http://www.w3.org/2000/svg"
   xmlns:svg="http://www.w3.org/2000/svg">
  <defs
     id="defs2">
    <rect
       x="56.836441"
       y="244.83389"
       width="703.89746"
       height="299.48431"
       id="rect113" />
  </defs>
  <g
     id="layer1"
     transform="translate(-16.736964,-69.249449)">
    <g
       aria-label="uvGraph"
       transform="scale(0.26458333)"
       id="text111"
       style="font-size:96px;white-space:pre;shape-inside:url(#rect113);display:inline">
      <path
         d="m 63.257812,281.41769 h 12.9375 v 24.5625 q 0,7.17188 0.984375,9.98438 0.984375,2.76562 3.140625,4.3125 2.203125,1.54687 5.390625,1.54687 3.1875,0 5.390625,-1.5 2.25,-1.54687 3.328125,-4.5 0.796875,-2.20312 0.796875,-9.42187 v -24.98438 h 12.843748 v 21.60938 q 0,13.35937 -2.10937,18.28125 -2.57813,6 -7.593753,9.23437 -5.015625,3.1875 -12.75,3.1875 -8.390625,0 -13.59375,-3.75 -5.15625,-3.75 -7.265625,-10.45312 -1.5,-4.64063 -1.5,-16.875 z"
         style="font-weight:bold;font-family:'Century Gothic';-inkscape-font-specification:'Century Gothic Bold';fill:#008080"
         id="path190" />
      <path
         d="m 115.42969,281.41769 h 13.03125 l 12.89062,30.09375 12.84375,-30.09375 h 12.98438 l -21.70313,51 h -8.29687 z"
         style="font-weight:bold;font-family:'Century Gothic';-inkscape-font-specification:'Century Gothic Bold';fill:#800080"
         id="path192" />
      <path
         d="m 239.74219,274.71457 -9.23438,9.14062 q -8.76562,-9.28125 -20.4375,-9.28125 -10.17187,0 -17.0625,6.75 -6.84375,6.75 -6.84375,16.40625 0,9.98438 7.125,16.92188 7.125,6.9375 17.57813,6.9375 6.79687,0 11.4375,-2.85938 4.6875,-2.85937 7.54687,-8.95312 h -19.96875 v -12.32813 h 34.6875 l 0.0937,2.90625 q 0,9.04688 -4.6875,17.15625 -4.6875,8.10938 -12.14062,12.375 -7.45313,4.26563 -17.48438,4.26563 -10.73437,0 -19.17187,-4.64063 -8.39063,-4.6875 -13.3125,-13.3125 -4.875,-8.625 -4.875,-18.60937 0,-13.6875 9.04687,-23.8125 10.73438,-12.04688 27.9375,-12.04688 9,0 16.82813,3.32813 6.60937,2.8125 12.9375,9.65625 z"
         style="font-weight:bold;font-family:'Century Gothic';-inkscape-font-specification:'Century Gothic Bold';fill:#333333"
         id="path194" />
      <path
         d="m 252.30469,281.41769 h 10.96875 v 6.42188 q 1.78125,-3.79688 4.73437,-5.76563 2.95313,-1.96875 6.46875,-1.96875 2.48438,0 5.20313,1.3125 l -3.98438,11.01563 q -2.25,-1.125 -3.70312,-1.125 -2.95313,0 -5.01563,3.65625 -2.01562,3.65625 -2.01562,14.34375 l 0.0469,2.48437 v 20.625 h -12.70312 z"
         style="font-weight:bold;font-family:'Century Gothic';-inkscape-font-specification:'Century Gothic Bold';fill:#333333"
         id="path196" />
      <path
         d="m 323.69531,281.41769 h 12.75 v 51 h -12.75 v -5.39062 q -3.75,3.5625 -7.54687,5.15625 -3.75,1.54687 -8.15625,1.54687 -9.89063,0 -17.10938,-7.64062 -7.21875,-7.6875 -7.21875,-19.07813 0,-11.8125 6.98438,-19.35937 6.98437,-7.54688 16.96875,-7.54688 4.59375,0 8.625,1.73438 4.03125,1.73437 7.45312,5.20312 z m -13.45312,10.5 q -5.95313,0 -9.89063,4.21875 -3.9375,4.17188 -3.9375,10.73438 0,6.60937 3.98438,10.875 4.03125,4.26562 9.89062,4.26562 6.04688,0 10.03125,-4.17187 3.98438,-4.21875 3.98438,-11.01563 0,-6.65625 -3.98438,-10.78125 -3.98437,-4.125 -10.07812,-4.125 z"
         style="font-weight:bold;font-family:'Century Gothic';-inkscape-font-specification:'Century Gothic Bold';fill:#333333"
         id="path198" />
      <path
         d="m 362.08594,281.41769 v 5.625 q 3.46875,-3.46875 7.5,-5.20312 4.03125,-1.73438 8.625,-1.73438 9.98437,0 16.96875,7.54688 6.98437,7.54687 6.98437,19.35937 0,11.39063 -7.21875,19.07813 -7.21875,7.64062 -17.10937,7.64062 -4.40625,0 -8.20313,-1.54687 -3.79687,-1.59375 -7.54687,-5.15625 v 24.04687 h -12.70313 v -69.65625 z m 13.45312,10.5 q -6.04687,0 -10.03125,4.125 -3.98437,4.125 -3.98437,10.78125 0,6.79688 3.98437,11.01563 3.98438,4.17187 10.03125,4.17187 5.85938,0 9.84375,-4.26562 4.03125,-4.26563 4.03125,-10.875 0,-6.5625 -3.9375,-10.73438 -3.9375,-4.21875 -9.9375,-4.21875 z"
         style="font-weight:bold;font-family:'Century Gothic';-inkscape-font-specification:'Century Gothic Bold';fill:#333333"
         id="path200" />
      <path
         d="m 412.80469,261.73019 h 12.70312 v 24.84375 q 3.75,-3.23437 7.54688,-4.82812 3.79687,-1.64063 7.6875,-1.64063 7.59375,0 12.79687,5.25 4.45313,4.54688 4.45313,13.35938 v 33.70312 h -12.60938 v -22.35937 q 0,-8.85938 -0.84375,-12 -0.84375,-3.14063 -2.90625,-4.6875 -2.01562,-1.54688 -5.01562,-1.54688 -3.89063,0 -6.70313,2.57813 -2.76562,2.57812 -3.84375,7.03125 -0.5625,2.29687 -0.5625,10.5 v 20.48437 h -12.70312 z"
         style="font-weight:bold;font-family:'Century Gothic';-inkscape-font-specification:'Century Gothic Bold';fill:#333333"
         id="path202" />
    </g>
  </g>
</svg>
